<?xml version="1.0"?>
<svg xmlns="http://www.w3.org/2000/svg" xmlns:xlink="http://www.w3.org/1999/xlink" version="1.1" id="Layer_1" x="0px" y="0px" viewBox="0 0 512 512" style="enable-background:new 0 0 512 512;" xml:space="preserve" width="512px" height="512px" class=""><g><g>
	<g>
		<path d="M419.334,0H92.666l-74.8,117.042v58.73c0,26.924,14.854,50.432,36.788,62.799V512h404.92V237.278    c20.709-12.672,34.56-35.501,34.56-61.506v-58.73L419.334,0z M110.953,33.391h290.091l45.909,71.835H65.045L110.953,33.391z     M294.925,478.609h-89.657V325.357h89.657V478.609z M328.316,478.609V291.966H171.877v186.643H88.045V247.78    c0.625,0.016,1.247,0.048,1.877,0.048c22.225,0,42.132-10.113,55.359-25.982c13.227,15.868,33.134,25.982,55.359,25.982    s42.132-10.113,55.359-25.982c13.229,15.868,33.135,25.982,55.359,25.982c22.224,0,42.132-10.113,55.359-25.982    c13.229,15.868,33.135,25.982,55.359,25.982c1.378,0,2.745-0.048,4.104-0.125v230.905H328.316z M460.743,175.772    c-0.001,21.319-17.346,38.664-38.664,38.664c-21.319,0-38.664-17.345-38.664-38.664h-33.391c0,21.319-17.345,38.664-38.664,38.664    c-21.319,0-38.665-17.345-38.665-38.664h-33.391c0,21.319-17.345,38.664-38.664,38.664s-38.664-17.345-38.664-38.664h-33.391    c0,21.319-17.345,38.664-38.664,38.664s-38.664-17.345-38.664-38.664v-37.155h409.485V175.772z" data-original="#000000" class="active-path" data-old_color="#000000" fill="#FFFFFF"/>
	</g>
</g></g> </svg>
